<?xml version="1.0" encoding="UTF-8" standalone="no"?>
<svg
   xmlns:dc="http://purl.org/dc/elements/1.1/"
   xmlns:cc="http://creativecommons.org/ns#"
   xmlns:rdf="http://www.w3.org/1999/02/22-rdf-syntax-ns#"
   xmlns:svg="http://www.w3.org/2000/svg"
   xmlns="http://www.w3.org/2000/svg"
   xmlns:xlink="http://www.w3.org/1999/xlink"
   xmlns:sodipodi="http://sodipodi.sourceforge.net/DTD/sodipodi-0.dtd"
   xmlns:inkscape="http://www.inkscape.org/namespaces/inkscape"
   version="1.1"
   id="Layer_1"
   x="0px"
   y="0px"
   width="100"
   height="100"
   viewBox="0 0 100 100"
   enable-background="new 0 0 100 100"
   xml:space="preserve"
   inkscape:version="0.48.5 r10040"
   sodipodi:docname="icon_34269.svg"><metadata
     id="metadata13"><rdf:RDF><cc:Work
         rdf:about=""><dc:format>image/svg+xml</dc:format><dc:type
           rdf:resource="http://purl.org/dc/dcmitype/StillImage" /><dc:title></dc:title></cc:Work></rdf:RDF></metadata><defs
     id="defs11"><linearGradient
       id="linearGradient2994"><stop
         style="stop-color:#1f0074;stop-opacity:1;"
         offset="0"
         id="stop2996" /><stop
         style="stop-color:#782a92;stop-opacity:1;"
         offset="1"
         id="stop2998" /></linearGradient><linearGradient
       inkscape:collect="always"
       xlink:href="#linearGradient2994"
       id="linearGradient3000"
       x1="23.370478"
       y1="22.248217"
       x2="104.26829"
       y2="117.37805"
       gradientUnits="userSpaceOnUse"
       gradientTransform="translate(-0.59924304,-14.831265)" /><linearGradient
       inkscape:collect="always"
       xlink:href="#linearGradient2994"
       id="linearGradient3777"
       gradientUnits="userSpaceOnUse"
       gradientTransform="translate(-0.59924304,-14.831265)"
       x1="23.370478"
       y1="22.248217"
       x2="104.26829"
       y2="117.37805" /><linearGradient
       inkscape:collect="always"
       xlink:href="#linearGradient2994"
       id="linearGradient3780"
       gradientUnits="userSpaceOnUse"
       gradientTransform="translate(-3.067993,-15.143765)"
       x1="23.370478"
       y1="22.248217"
       x2="104.26829"
       y2="117.37805" /></defs><sodipodi:namedview
     pagecolor="#ffffff"
     bordercolor="#666666"
     borderopacity="1"
     objecttolerance="10"
     gridtolerance="10"
     guidetolerance="10"
     inkscape:pageopacity="0"
     inkscape:pageshadow="2"
     inkscape:window-width="1600"
     inkscape:window-height="853"
     id="namedview9"
     showgrid="false"
     fit-margin-top="0"
     fit-margin-left="0"
     fit-margin-right="0"
     fit-margin-bottom="0"
     inkscape:zoom="3.337544"
     inkscape:cx="-31.330031"
     inkscape:cy="45.282483"
     inkscape:window-x="-2"
     inkscape:window-y="-3"
     inkscape:window-maximized="1"
     inkscape:current-layer="Layer_1" /><path
     style="fill:url(#linearGradient3780);fill-opacity:1;stroke:#000000;stroke-width:0;stroke-miterlimit:4;stroke-opacity:1;stroke-dasharray:none"
     d="M 4,0 C 1.784,0 0,1.784 0,4 l 0,92 c 0,2.216 1.784,4 4,4 l 92,0 c 2.216,0 4,-1.784 4,-4 L 100,4 C 100,1.784 98.216,0 96,0 L 4,0 z m 5.09375,20.4375 52.59375,0 c 1.192,0 2.25,0.45925 2.25,1.78125 l 0,37.09375 c 0,0.977 -0.80725,1.78125 -1.78125,1.78125 l -11.25,0 c -0.962,4.526 -3.9735,7.4625 -8.0625,9.5625 l 0,-9.5625 -34.21875,0 c -0.975,0 -1.78125,-0.80425 -1.78125,-1.78125 l 0,-37.09375 c 0,-1.321 1.053,-1.78125 2.25,-1.78125 z M 35.375,25.875 c -6.24,0 -7.22875,4.03625 -7.21875,8.65625 -0.084,-0.008 -0.167,-0.016 -0.25,0 -0.796,0.151 -1.22775,1.385 -0.96875,2.75 0.249,1.307 1.0445,2.2465 1.8125,2.1875 0.535,1.399 1.215,2.71875 2.125,3.96875 0.912,1.254 1.789,2.1575 2.875,2.5625 0.754,0.282 2.52325,0.282 3.28125,0 1.081,-0.404 1.964,-1.3085 2.875,-2.5625 0.92,-1.259 1.61525,-2.59 2.15625,-4 0.011,-0.002 0.02025,10e-4 0.03125,0 0.032,0.01 0.05975,0.02525 0.09375,0.03125 0.796,0.151 1.64725,-0.8255 1.90625,-2.1875 0.258,-1.364 -0.17175,-2.599 -0.96875,-2.75 -0.163,-0.031 -0.337,0.0045 -0.5,0.0625 0.019,-4.645 -0.984,-8.71875 -7.25,-8.71875 z m 30.8125,17.65625 25.375,0 c 0.852,0 1.59375,0.33525 1.59375,1.28125 l 0,26.59375 c 0,0.698 -0.555,1.28125 -1.25,1.28125 l -24.84375,0 0,6.875 c -2.935,-1.507 -5.09125,-3.628 -5.78125,-6.875 l -4.125,0 c -0.699,0 -1.28125,-0.58225 -1.28125,-1.28125 l 0,-8.0625 6.28125,0 c 1.908,0 4.03125,-2.11925 4.03125,-4.03125 l 0,-15.78125 z M 30.46875,46.3125 c -5.806,2.196 -9.16925,5.4225 -11.03125,9.5625 l 31.90625,0 c -1.862,-4.14 -5.22525,-7.3665 -11.03125,-9.5625 -0.762,0.876 -1.643,1.6475 -2.75,2.0625 -1.1,0.409 -3.24475,0.409 -4.34375,0 -1.112,-0.414 -1.992,-1.1865 -2.75,-2.0625 z M 75,48.78125 c -3.954,0 -4.5685,2.572 -4.5625,5.5 -0.053,-0.005 -0.10225,-0.011 -0.15625,0 -0.504,0.095 -0.79,0.85475 -0.625,1.71875 0.158,0.83 0.67025,1.44325 1.15625,1.40625 0.339,0.886 0.76675,1.73925 1.34375,2.53125 0.577,0.794 1.1235,1.369 1.8125,1.625 0.478,0.178 1.61275,0.178 2.09375,0 0.686,-0.256 1.2345,-0.831 1.8125,-1.625 0.583,-0.798 1.00075,-1.6685 1.34375,-2.5625 0.007,-10e-4 0.02425,10e-4 0.03125,0 0.02,0.005 0.0405,0.02725 0.0625,0.03125 0.504,0.096 1.05375,-0.54225 1.21875,-1.40625 0.163,-0.864 -0.12,-1.62375 -0.625,-1.71875 -0.104,-0.02 -0.2095,-0.0057 -0.3125,0.03125 C 79.60575,51.3695 78.972,48.78125 75,48.78125 z M 71.90625,61.75 c -3.68,1.392 -5.82,3.4385 -7,6.0625 l 20.21875,0 c -1.18,-2.624 -3.32,-4.6705 -7,-6.0625 -0.483,0.555 -1.047,1.0495 -1.75,1.3125 -0.696,0.259 -2.02275,0.259 -2.71875,0 -0.706,-0.262 -1.27,-0.7565 -1.75,-1.3125 z"
     id="rect2992"
     inkscape:connector-curvature="0" /></svg>